<svg width="440" height="440" viewBox="0 0 440 440" fill="none" xmlns="http://www.w3.org/2000/svg">
<g filter="url(#filter0_i_634_17606)">
<rect width="440" height="440" rx="71" fill="#F5F5F5"/>
</g>
<rect x="0.5" y="0.5" width="439" height="439" rx="70.5" stroke="#EBEBEB" stroke-opacity="0.16"/>
<g clip-path="url(#clip0_634_17606)">
<path d="M256.61 292.006V310.618H279.673C279.973 310.618 284.431 313.094 284.901 313.482C290.112 317.763 288.461 326.3 288.971 326.81C289.683 327.522 301.927 325.596 304.152 327.805C305.746 329.392 305.455 334.069 302.801 334.538L170.574 334.7C167.434 334.643 166.779 329.61 168.591 327.805C170.817 325.588 183.06 327.514 183.772 326.81C184.282 326.3 182.631 317.763 187.843 313.482C188.312 313.094 192.779 310.618 193.07 310.618H216.133V292.006H142.106C141.75 292.006 136.603 289.011 136.012 288.388C134.709 286.988 133.018 283.08 132.775 281.105L132.751 139.435C133.415 132.678 137.728 128.365 144.485 127.701H328.259C335.016 128.365 339.329 132.678 339.993 139.435L339.968 281.105C339.726 283.08 338.034 286.988 336.731 288.388C336.149 289.019 330.994 292.006 330.638 292.006H256.594H256.61Z" fill="#010101"/>
<path d="M191.872 326.803C191.775 320.296 191.395 319.123 197.909 318.678C223.359 316.938 250.783 320.054 276.452 318.71C281.526 318.646 280.983 322.862 280.886 326.803H191.872Z" fill="#B8BDC8"/>
<path d="M248.518 292.006H224.241V310.618H248.518V292.006Z" fill="#B8BEC8"/>
<path d="M331.867 259.637H140.891V283.946H331.867V259.637Z" fill="#B8BEC8"/>
<path d="M239.414 268.724C240.685 269.987 240.66 273.572 239.414 274.81C237.836 276.38 218.738 276.38 217.152 274.81C215.235 272.908 215.882 268.538 219.135 267.915C221.935 267.381 237.925 267.235 239.414 268.724Z" fill="#010101"/>
<path d="M252.563 275.902C254.847 275.902 256.698 274.051 256.698 271.767C256.698 269.483 254.847 267.632 252.563 267.632C250.279 267.632 248.428 269.483 248.428 271.767C248.428 274.051 250.279 275.902 252.563 275.902Z" fill="#050506"/>
<path d="M326.996 139.759L302.678 169.862L335.08 256.845L274.995 236.695L208.331 252.095L162.376 278.637L145.932 208.365L100.26 169.133L185.827 173.22L263.65 105.067L319.389 121.778C328.201 122.579 332.555 132.88 326.996 139.759Z" fill="#A1A1A1"/>
<path d="M259.644 207.985C260.202 212.33 268.95 228.094 266.102 230.797L208.315 252.095C206.859 251.788 206.033 249.611 205.459 248.381C199.414 235.474 190.342 211.213 186.507 197.505C186.175 196.308 185.625 194.819 185.884 193.597C186.571 190.336 203.913 186.273 207.328 184.056C200.676 153.403 232.179 127.823 260.47 143.198C286.672 157.441 285.054 194.082 259.644 207.977V207.985Z" fill="#010101"/>
<path d="M256.407 199.576L246.38 172.654C245.838 171.197 244.196 170.444 242.739 170.987L215.816 181.013C210.03 159.131 232.527 140.665 253.502 148.822C275.545 157.4 277.819 189.291 256.407 199.568V199.576Z" fill="#FE5283"/>
<path d="M210.298 191.711C218.398 206.811 235.214 214.499 251.932 210.744L257.58 225.909L212.078 242.854L195.133 197.351L210.298 191.703V191.711Z" fill="#FEE25C"/>
<path d="M240.627 180.414L249.1 203.161C236.136 205.144 224.872 200.005 217.88 188.887L240.627 180.414Z" fill="#F8906A"/>
<path d="M234.292 158.638C236.557 157.95 238.88 157.521 241.251 157.424C242.894 157.359 245.095 157.06 245.774 158.937C246.058 159.706 246.155 160.532 246.203 161.341C246.244 162.045 246.26 162.822 245.977 163.485C245.912 163.631 245.766 163.841 245.734 163.866C245.507 164.027 245.224 163.914 244.917 163.76C243.881 163.218 242.926 162.433 241.963 161.77C239.673 160.2 237.391 158.63 235.101 157.068C233.806 156.186 232.592 158.282 233.879 159.164C236.347 160.855 238.815 162.546 241.291 164.238C242.368 164.974 243.509 166.01 244.803 166.293C246.001 166.56 247.158 166.091 247.854 165.087C249.003 163.429 248.752 160.952 248.348 159.083C248.113 158.023 247.66 156.939 246.851 156.194C245.863 155.28 244.569 155.029 243.266 154.98C240.037 154.859 236.744 155.344 233.66 156.291C232.171 156.744 232.803 159.091 234.308 158.63L234.292 158.638Z" fill="#FEFEFE"/>
<path d="M258.407 171.399C261.368 172.759 264.104 174.555 266.499 176.764C267.316 177.517 268.473 176.95 268.571 175.907C268.813 173.228 268.708 170.541 268.271 167.887C267.899 165.581 267.462 162.805 265.228 161.551C264.274 161.017 263.197 160.807 262.121 160.677C261.045 160.548 259.782 160.345 258.981 161.195C258.132 162.109 258.164 163.704 257.986 164.861C257.767 166.236 257.557 167.604 257.339 168.98C257.233 169.627 257.5 170.283 258.188 170.477C258.763 170.639 259.58 170.283 259.685 169.627C259.863 168.486 260.049 167.337 260.227 166.196C260.316 165.646 260.397 165.095 260.486 164.545C260.559 164.068 260.745 163.485 260.737 163.008C260.745 162.943 260.762 162.886 260.786 162.821C260.486 162.951 260.43 163.008 260.624 162.983C260.786 163.056 261.126 163.008 261.312 163.016C261.684 163.04 262.048 163.072 262.412 163.137C263.1 163.258 263.845 163.428 264.395 163.89C265.067 164.448 265.261 165.362 265.463 166.18C265.714 167.191 265.916 168.227 266.054 169.263C266.345 171.464 266.353 173.697 266.151 175.907L268.223 175.049C265.674 172.702 262.785 170.752 259.637 169.303C259.038 169.028 258.326 169.133 257.978 169.74C257.67 170.266 257.816 171.124 258.415 171.399H258.407Z" fill="#FEFEFE"/>
<path d="M249.262 177.663L261.781 177.768L260.923 175.696C258.908 178.278 256.885 180.859 254.87 183.432C254.198 184.29 254.627 185.391 255.728 185.504C257.694 185.706 259.66 185.909 261.627 186.111L260.769 184.039C259.612 185.407 258.714 186.92 258.155 188.627C257.694 190.027 257.128 192.099 258.625 193.086C259.215 193.475 259.903 193.491 260.583 193.491C260.793 193.491 261.327 193.637 261.19 193.345C261.295 193.556 260.898 194.041 260.785 194.179C259.701 195.498 257.71 196.347 256.14 196.873C254.667 197.367 255.299 199.714 256.788 199.212C258.625 198.597 260.332 197.707 261.845 196.493C263.019 195.554 264.168 193.807 263.35 192.285C263.002 191.646 262.355 191.257 261.659 191.12C261.263 191.039 260.866 191.063 260.462 191.063C260.34 191.063 260.13 191.112 260.025 191.063C259.919 191.015 260.089 191.257 260.081 191.015C260.057 190.173 260.526 189.081 260.874 188.328C261.295 187.406 261.845 186.54 262.493 185.771C263.205 184.929 262.703 183.805 261.635 183.699C259.668 183.497 257.702 183.295 255.736 183.092L256.593 185.164C258.608 182.583 260.631 180.001 262.646 177.428C263.27 176.635 262.93 175.364 261.789 175.356L249.27 175.251C247.708 175.235 247.708 177.663 249.27 177.679L249.262 177.663Z" fill="#FEFEFE"/>
<path d="M209.408 213.916C209.514 213.916 209.611 213.932 209.716 213.932C210.007 213.94 209.538 213.891 209.797 213.94C209.991 213.98 210.185 214.021 210.379 214.069C210.574 214.118 210.752 214.191 210.938 214.264C210.671 214.158 210.97 214.288 211.011 214.304C211.1 214.345 211.189 214.393 211.27 214.442C211.448 214.539 211.618 214.644 211.779 214.757C211.86 214.814 211.941 214.871 212.022 214.935C212.208 215.065 211.949 214.871 212.055 214.96C212.37 215.235 212.678 215.502 212.961 215.801C213.244 216.101 213.503 216.408 213.762 216.732C213.6 216.529 213.819 216.813 213.835 216.829C213.9 216.918 213.964 217.007 214.029 217.088C214.159 217.266 214.28 217.444 214.401 217.622C214.879 218.334 215.308 219.079 215.72 219.831C216.028 220.389 216.837 220.616 217.379 220.268C217.921 219.92 218.14 219.2 217.816 218.609C216.02 215.356 213.511 211.65 209.408 211.488C208.777 211.464 208.162 212.063 208.195 212.702C208.227 213.382 208.729 213.891 209.408 213.916Z" fill="#FEFEFE"/>
<path d="M227.113 221.976C230.075 221.199 233.029 220.422 235.99 219.645C237.342 219.289 238.807 218.731 240.231 218.812C241.267 218.877 242.383 219.467 242.27 220.633C242.124 222.186 244.552 222.178 244.698 220.633C244.843 219.087 243.921 217.784 242.675 217.048C241.129 216.125 239.252 216.336 237.577 216.732C233.862 217.614 230.172 218.666 226.474 219.637C224.961 220.034 225.608 222.372 227.121 221.976H227.113Z" fill="#FEFEFE"/>
<path d="M221.424 209.967L220.453 211.245L221.821 210.687C221.691 210.655 221.837 210.825 221.845 210.768C221.861 210.622 221.772 210.379 221.764 210.226C221.74 209.781 221.764 209.336 221.764 208.891C221.74 207.822 221.513 206.819 220.769 206.01C218.916 203.987 216.091 204.48 213.753 205.184L214.691 207.402C215.946 206.641 217.046 205.694 217.944 204.529C218.495 203.825 218.365 202.781 217.41 202.498C214.182 201.543 210.904 200.798 207.578 200.256L208.468 201.429C208.549 200.766 209.253 200.232 209.723 199.827C210.427 199.22 211.147 198.638 211.859 198.039C213.324 196.817 214.788 195.595 216.253 194.373C217.451 193.37 215.727 191.662 214.538 192.658C212.798 194.106 211.058 195.563 209.318 197.011C207.829 198.257 206.292 199.374 206.041 201.429C205.984 201.907 206.454 202.522 206.931 202.603C210.249 203.145 213.534 203.89 216.763 204.844L216.229 202.813C215.452 203.817 214.554 204.65 213.469 205.306C212.312 206.002 213.057 207.928 214.408 207.523C215.978 207.045 219.263 206.196 219.344 208.777C219.401 210.428 219.183 212.475 221.189 213.026C221.764 213.179 222.233 212.904 222.557 212.467L223.528 211.189C223.925 210.663 223.609 209.837 223.091 209.53C222.476 209.158 221.821 209.449 221.432 209.967H221.424Z" fill="#FEFEFE"/>
<path d="M223.812 208.858L225.754 213.511C226.272 214.749 226.709 216.335 228.166 216.756C230.966 217.557 232.511 214.256 233.879 212.516C234.623 211.569 235.651 210.606 236.946 210.647C238.006 210.679 238.508 211.618 238.945 212.451C239.843 214.142 240.701 216.125 242.934 216.117C243.452 216.117 243.978 215.745 244.108 215.227C245.775 208.373 247.984 201.664 250.703 195.15C250.962 194.543 250.428 193.823 249.853 193.653C249.157 193.451 248.615 193.896 248.356 194.503C245.637 201.009 243.428 207.725 241.761 214.579L242.934 213.689C242.263 213.689 241.947 212.977 241.672 212.451C241.275 211.715 240.944 210.938 240.458 210.242C239.131 208.332 236.946 207.758 234.802 208.68C233.685 209.158 232.811 209.975 232.058 210.922C231.306 211.869 230.763 213.018 229.898 213.843C229.703 214.029 229.186 214.531 228.87 214.442C228.465 214.329 228.093 212.872 227.947 212.516L226.159 208.219C225.908 207.612 225.358 207.191 224.662 207.369C224.087 207.523 223.561 208.259 223.812 208.866V208.858Z" fill="#FEFEFE"/>
<path d="M215.469 194.228C215.348 191.865 215.51 189.575 215.947 187.366C216.068 186.743 215.768 186.022 215.097 185.869C214.498 185.731 213.737 186.047 213.6 186.718C213.106 189.186 212.904 191.711 213.033 194.228C213.066 194.859 213.567 195.474 214.247 195.442C214.878 195.417 215.493 194.908 215.461 194.228H215.469Z" fill="#FEFEFE"/>
</g>
<defs>
<filter id="filter0_i_634_17606" x="0" y="-2" width="440" height="442" filterUnits="userSpaceOnUse" color-interpolation-filters="sRGB">
<feFlood flood-opacity="0" result="BackgroundImageFix"/>
<feBlend mode="normal" in="SourceGraphic" in2="BackgroundImageFix" result="shape"/>
<feColorMatrix in="SourceAlpha" type="matrix" values="0 0 0 0 0 0 0 0 0 0 0 0 0 0 0 0 0 0 127 0" result="hardAlpha"/>
<feMorphology radius="27" operator="erode" in="SourceAlpha" result="effect1_innerShadow_634_17606"/>
<feOffset dy="-2"/>
<feGaussianBlur stdDeviation="48.6"/>
<feComposite in2="hardAlpha" operator="arithmetic" k2="-1" k3="1"/>
<feColorMatrix type="matrix" values="0 0 0 0 1 0 0 0 0 1 0 0 0 0 1 0 0 0 0.25 0"/>
<feBlend mode="normal" in2="shape" result="effect1_innerShadow_634_17606"/>
</filter>
<clipPath id="clip0_634_17606">
<rect width="239.74" height="229.625" fill="white" transform="translate(100.26 105.067)"/>
</clipPath>
</defs>
</svg>
